<svg xmlns="http://www.w3.org/2000/svg ><path d="M 32.560357,0.6434409 C 31.106536,1.1820387 30.080063,1.929278 28.391769,3.6493696 24.414852,7.7108889 18.991348,16.28411 14.562369,25.517211 11.960325,30.932408 10.22201,35.131644 8.0171595,41.399434 2.9167278,55.874522 1.9872952,63.476439 4.8804768,67.095979 c 0.8757847,1.083872 2.2536589,1.995563 3.6809651,2.448847 1.24347,0.400334 1.325437,0.407538 2.9667111,0.269294 4.138451,-0.328405 5.958138,-2.032044 8.474598,-7.962177 3.797301,-8.904208 7.495749,-14.550133 15.300694,-23.330983 2.906445,-3.271099 9.484817,-9.483894 9.80126,-9.253664 0.08739,0.06012 -0.430367,1.169694 -0.691357,1.470326 -0.101891,0.114625 -1.012618,1.655354 -2.013174,3.430946 l -2.047515,3.567115 c -1.724463,2.459119 -5.604941,11.971281 -6.220944,15.25574 -0.306791,1.575177 -0.13855,4.43823 0.329101,5.499991 0.517749,1.231349 1.280826,2.163597 2.408574,3.014139 3.165022,2.327549 8.056897,2.062367 10.750564,-0.603862 1.500835,-1.491903 3.956424,-5.197267 6.454806,-9.735193 4.297586,-7.845002 8.40348,-13.321348 13.925224,-18.61113 1.579796,-1.511448 3.24699,-2.962751 4.720709,-4.091318 0.135583,-0.104352 0.261588,-0.140258 0.268829,-0.0739 0.0075,0.06632 -0.813716,1.386036 -1.821514,2.934482 -3.868409,5.885941 -5.484981,9.380086 -6.417421,13.838863 -0.58346,2.813708 -0.668436,4.184335 -0.398414,6.933307 0.222414,2.136879 0.304382,2.612255 0.73475,3.623135 1.64188,3.91505 5.447011,6.62239 10.311158,7.335702 1.763634,0.253882 5.503674,-0.0041 7.480079,-0.515461 2.008347,-0.513922 4.24031,-1.379366 6.476506,-2.513068 6.942413,-3.498265 13.287524,-8.983843 19.750154,-17.087361 7.32518,-9.172459 10.76925,-16.952698 8.98815,-20.335325 -0.46593,-0.887548 -1.80341,-1.883005 -2.942,-2.210888 -1.38691,-0.376191 -3.1385,-0.202491 -4.53024,0.465095 -1.60752,0.777562 -2.74369,2.027935 -5.62783,6.140323 -6.683849,9.5651 -13.147089,16.411049 -17.111359,18.103898 -1.134352,0.487703 -3.160184,0.681965 -3.987153,0.38337 C 82.528566,45.001588 82.148846,43.22445 82.892634,40.853729 84.246391,36.550162 87.988231,30.539856 95.620802,20.42075 100.35838,14.147311 101.38847,12.503788 101.94723,10.387973 102.70547,7.5341598 101.73325,5.2138161 99.007031,3.3611307 97.99381,2.675559 97.360328,2.3625745 96.168697,1.9853558 92.391886,0.8012837 89.056303,1.5099778 84.718349,4.4485746 c -1.804633,1.2210815 -2.809404,2.0197104 -6.98703,5.5616604 -3.790071,3.20481 -12.075403,11.272856 -16.569472,16.136606 -0.642531,0.69122 -1.201884,1.242137 -1.238649,1.204634 -0.0874,-0.06012 0.84325,-1.883528 3.920862,-7.562359 2.681619,-4.966532 3.741232,-7.107007 4.189674,-8.412361 0.68293,-2.018177 0.719687,-4.0008792 0.09399,-5.3314159 C 67.439964,4.586308 65.796289,3.3061337 63.853028,2.7320885 62.897674,2.4437771 62.504083,2.4067675 61.179262,2.4674226 c -1.859475,0.0745 -3.01313,0.376191 -4.85151,1.2786267 -5.267985,2.5814325 -11.516667,8.5285217 -22.405253,21.3698637 -1.172343,1.373715 -2.187959,2.53414 -2.281392,2.568065 -0.468333,0.18296 3.577898,-7.429244 7.156997,-13.44058 C 41.782912,9.227013 42.375998,7.7505181 42.309105,5.5483729 42.245171,3.0651143 40.746787,1.3064614 37.977167,0.43332 36.970578,0.1218841 36.690917,0.0895065 35.237084,0.1604292 c -1.37184,0.077595 -1.802809,0.1505773 -2.677389,0.4846316 v 0 0 z" fill="#37bbed" style="stroke-width:0.556567"/></svg>